<svg width="59" height="78" viewBox="0 0 59 78" fill="none" xmlns="http://www.w3.org/2000/svg">
<g clip-path="url(#clip0_948_1951)">
<path d="M47.657 71.7423C48.3256 71.3101 48.9957 70.8794 49.6658 70.4487C51.7103 69.135 53.8264 67.7745 55.8725 66.397C57.4039 65.3662 58.088 63.4523 57.5749 61.6347C57.2065 60.3318 56.3529 59.3165 55.1682 58.7755C53.9616 58.2251 52.5375 58.2546 51.2594 58.8563C48.8433 59.9929 46.3945 61.1683 44.0251 62.3048L44.0033 62.3157C42.8808 62.8537 41.7566 63.3932 40.6325 63.9296C40.4895 63.998 40.3449 64.0602 40.1848 64.1301C40.1117 64.1612 40.0371 64.1939 39.9562 64.2296L38.644 64.8111V63.1522C38.6455 63.0278 38.6471 62.9392 38.644 62.8506C38.5865 60.6241 36.9928 58.6915 34.855 58.2546C32.9271 57.8613 31.1888 57.555 29.5392 57.3187C27.2723 56.9937 25.5932 56.2785 24.0959 55.002C21.5912 52.8658 18.55 51.992 15.0565 52.4056C14.4781 52.474 13.8997 52.5952 13.2871 52.7243C12.9886 52.7865 12.6932 52.8487 12.3947 52.9062L11.2877 53.1161V51.9889C11.2877 51.9469 11.2877 51.9065 11.2846 51.8645C11.2799 51.7152 11.2752 51.5473 11.2955 51.3623C11.3297 51.0607 11.2628 50.815 11.098 50.6331C10.8974 50.4123 10.5616 50.2973 10.1496 50.3051C7.53289 50.3626 4.71097 50.3641 1.27181 50.3097C0.4882 50.2957 0.205231 50.4994 0 50.885V74.6653C0.202121 75.0322 0.500638 75.253 1.27181 75.2421C3.40496 75.2079 5.54744 75.2157 7.61841 75.2204C8.47353 75.2235 9.32866 75.225 10.1822 75.225C11.056 75.225 11.2628 75.0182 11.2877 74.1211C11.2908 74.0387 11.297 73.9548 11.3094 73.8491C11.3141 73.7993 11.3188 73.7604 11.3234 73.7138L11.4276 72.5741L13.4861 73.1976C14.1531 73.3997 14.8108 73.5987 15.47 73.7962C16.4153 74.0792 17.3606 74.3652 18.3059 74.6513C20.8185 75.4116 23.4025 76.1921 25.9523 76.9135C26.6224 77.1032 27.3345 77.1965 28.0886 77.2944C28.4571 77.3426 28.8364 77.3908 29.2189 77.4546C29.3682 77.4795 29.4926 77.5199 29.5952 77.5541H33.2489C33.3655 77.5137 33.5194 77.4655 33.7076 77.4499C36.0382 77.2618 38.3517 76.6958 40.7834 75.7148C42.8512 74.8814 44.7698 73.6252 46.6262 72.4109C46.9698 72.187 47.3119 71.9616 47.6555 71.7408L47.657 71.7423ZM9.62251 73.577H1.65584V51.9982H9.62251V73.577ZM41.9137 73.3422C38.5927 75.054 35.1038 75.9231 31.5449 75.9231C29.1972 75.9231 26.7841 75.5438 24.3711 74.7959C21.6814 73.9625 18.9543 73.1292 16.3158 72.3238C15.0129 71.9258 13.7085 71.5278 12.4056 71.1282C12.2952 71.094 12.1848 71.0551 12.0682 71.0147L11.2892 70.7442V65.7067C11.2908 62.6593 11.2923 59.5078 11.2799 56.3982C11.2768 55.6146 11.636 55.0767 12.3449 54.7968C16.3065 53.2358 20.0131 53.7551 23.062 56.3003C24.8313 57.7758 26.7935 58.62 29.2391 58.9543C30.9416 59.1875 32.6441 59.5249 34.2891 59.8514L34.3777 59.8685C35.2592 60.0426 36.0133 60.5433 36.4999 61.2771C36.9664 61.9799 37.1312 62.8148 36.9648 63.6279C36.587 65.4626 34.9452 66.5478 33.0561 66.2073C29.746 65.6103 26.4141 65.0241 23.006 64.4255C22.6344 64.3602 22.3095 64.41 22.0903 64.567C21.9208 64.6883 21.8151 64.8718 21.7778 65.1159C21.6891 65.674 22.2395 65.9741 22.7371 66.0596C22.9376 66.0954 23.1382 66.1327 23.3403 66.1716C23.5284 66.2073 23.7041 66.2415 23.8798 66.2726L26.2509 66.6924C28.4291 67.078 30.682 67.4776 32.9053 67.8616C34.5705 68.1492 36.1937 67.8974 37.8713 67.0904C40.5704 65.7922 43.3192 64.48 45.9763 63.2113L46.1007 63.1522C47.9649 62.2613 49.8291 61.372 51.6932 60.4795C52.1923 60.2401 53.1221 59.7954 54.1918 60.1763C55.2614 60.5588 55.9222 61.3751 56.0559 62.4774C56.1912 63.5922 55.7232 64.5577 54.739 65.1952L52.8717 66.4063C50.877 67.6999 48.8153 69.0386 46.7786 70.3415C46.3868 70.5933 45.995 70.8499 45.6047 71.1064C44.4231 71.8823 43.2026 72.683 41.9121 73.3484L41.9137 73.3422Z" fill="#AC3963"/>
<path d="M13.6303 10.4885C9.66096 16.0266 8.01134 22.8164 9.10279 29.1163C10.16 35.2157 13.6474 40.9295 18.6709 44.7947C24.08 48.9553 30.7904 50.6064 37.5661 49.445C45.0912 48.1546 51.5404 43.7856 55.2641 37.4608C59.0111 31.0955 59.6206 23.4429 56.9822 15.9116C56.7054 15.1233 56.1783 14.363 55.7508 13.7878C55.4476 13.3804 55.1708 13.4955 54.9407 13.6618C54.4292 14.0303 54.4945 14.3257 54.6049 14.5962C54.7013 14.831 54.7993 15.0673 54.8988 15.3021C58.4545 23.6419 57.5496 31.6319 52.209 39.0513C51.9027 39.4758 51.57 39.8567 51.2186 40.261C51.0585 40.4444 50.8937 40.6325 50.7273 40.8316L49.9157 41.7986L49.4182 40.6372C47.4296 35.9993 44.1817 32.8276 39.4863 30.9385L38.3357 30.4752L39.253 29.6418C41.8309 27.2988 42.4543 24.7349 42.5227 22.9983C42.6145 20.6599 41.7687 18.3619 40.203 16.6952C36.9178 13.2001 31.5087 12.9124 27.8892 16.0406C26.1183 17.5705 24.9817 20.0551 24.9258 22.5225C24.8838 24.3509 25.4093 27.0764 28.1504 29.676L29.0319 30.5109L27.9047 30.9618C23.3181 32.7934 20.008 36.0164 18.0645 40.5393L17.7085 41.3711L16.9404 40.8922C16.9249 40.8829 16.9109 40.8751 16.8969 40.8673C16.8114 40.8207 16.6823 40.7507 16.5642 40.6154C9.29403 32.2912 8.30053 21.6347 13.9724 12.8036C18.15 6.30307 24.0349 2.56694 31.4652 1.69937C37.0732 1.04481 42.4372 2.55916 47.4078 6.20201C47.9987 6.63579 48.5599 7.10844 49.1025 7.56555C49.4462 7.85629 49.8364 8.18435 50.2142 8.48286C50.5998 8.7876 50.9201 8.78916 51.2839 8.48908C51.5591 8.26209 51.6757 8.01488 51.343 7.54689C51.0243 7.09756 50.5936 6.52851 50.0821 6.1196C45.0119 2.05852 39.4863 0 33.6605 0C32.3327 0 30.9723 0.10728 29.6134 0.320284C23.3896 1.29513 17.5639 5.00172 13.6319 10.4885H13.6303ZM28.6339 27.7605C27.2735 26.4188 26.5241 24.6246 26.5225 22.7075C26.5225 20.7858 27.2673 18.9885 28.6199 17.6436C29.9726 16.3003 31.7823 15.5602 33.7149 15.5571C35.6568 15.5571 37.4666 16.2941 38.8208 17.6296C40.1797 18.9714 40.9291 20.7687 40.9306 22.6889C40.9322 26.6256 37.7045 29.8315 33.7351 29.8346C31.7994 29.8346 29.9881 29.0977 28.6324 27.759L28.6339 27.7605ZM19.4141 41.5001C21.5597 35.6371 27.4585 31.5402 33.7585 31.5402H33.7802C40.0273 31.5495 45.8919 35.6464 48.0453 41.5048C48.4122 42.5014 48.1899 43.2213 47.3239 43.8369C43.3374 46.6713 38.7648 48.1592 33.7336 48.2572H33.7258H33.7103C28.6821 48.1623 24.1111 46.676 20.1137 43.8385C19.2602 43.2321 19.044 42.5123 19.4141 41.5001Z" fill="#AC3963"/>
</g>
<defs>
<clipPath id="clip0_948_1951">
<rect width="58.598" height="77.5554" fill="white"/>
</clipPath>
</defs>
</svg>
