<svg width="65" height="57" viewBox="0 0 65 57" fill="none" xmlns="http://www.w3.org/2000/svg">
<g clip-path="url(#clip0_948_1924)">
<path d="M0.501659 48.6886C0.627734 48.1097 0.740539 47.5258 0.884862 46.9518C1.30456 45.268 2.00959 43.7103 3.08289 42.3467C3.28528 42.0896 3.76469 41.8839 4.07325 41.9303C4.35028 41.9735 4.68704 42.36 4.77828 42.6619C4.85459 42.9124 4.67377 43.3022 4.49792 43.5544C3.50757 44.9877 2.75775 46.5387 2.57029 48.2656C2.39611 49.8631 2.37123 51.4839 2.39943 53.0913C2.41934 54.1298 3.23219 54.8896 4.29554 54.9692C5.23779 55.0405 6.18833 54.9841 7.21353 54.9841C7.21353 53.9191 7.22016 52.8923 7.21021 51.8654C7.20523 51.381 7.38107 51.0045 7.83561 50.827C8.4494 50.5881 9.05821 51.0045 9.08475 51.7012C9.11793 52.5489 9.09636 53.3982 9.09968 54.2459C9.09968 54.4699 9.09968 54.6938 9.09968 54.9593H29.5754C29.5754 53.9291 29.5654 52.9022 29.5787 51.877C29.5886 51.1206 30.0365 50.6926 30.6885 50.7938C31.3006 50.8883 31.4831 51.3313 31.4914 51.8737C31.5046 52.66 31.4963 53.4463 31.4963 54.2327C31.4963 54.4583 31.4963 54.6839 31.4963 55.0472C32.6526 54.9957 33.7707 55.0372 34.8556 54.868C35.6917 54.737 36.2441 54.0734 36.2939 53.2075C36.4382 50.6843 36.5079 48.1545 35.4445 45.769C33.7093 41.8789 30.7034 39.6328 26.5346 38.8614C25.8976 38.7436 25.4381 38.8398 24.8973 39.228C21.543 41.6433 17.0723 41.5057 13.8159 38.9642C13.6102 38.8033 13.2668 38.7121 13.008 38.7469C11.0904 39.0057 9.25562 39.5233 7.60502 40.5883C7.09243 40.9184 6.53172 40.7724 6.24639 40.3179C5.95443 39.8534 6.0888 39.3441 6.61798 38.9908C8.37143 37.8196 10.3455 37.2523 12.3959 36.9022C12.6812 36.8541 12.9666 36.8093 13.2502 36.7529C14.1676 36.5705 14.6105 35.8953 14.4015 34.9729C14.3733 34.8519 14.2688 34.7208 14.1626 34.6478C11.8966 33.1133 10.6906 30.9452 10.3206 28.2694C10.2924 28.067 10.2659 27.848 10.1713 27.6738C9.40824 26.2654 9.1959 24.7094 8.90725 23.1666C8.76293 22.4002 8.45935 21.6653 8.30176 20.9006C8.06288 19.7278 8.18895 18.5981 8.90891 17.5861C8.98854 17.475 9.03996 17.3257 9.05489 17.188C9.19424 15.977 9.86443 15.1476 10.8896 14.547C11.0837 14.4326 11.2347 14.2285 11.3773 14.0427C11.5648 13.7989 11.6676 13.4306 11.9065 13.2929C13.1739 12.5696 14.4197 11.7419 15.785 11.2807C16.4867 11.0435 17.2681 10.9522 18.0112 10.6802C19.2156 10.2389 20.4481 10.3169 21.5613 11.0932C21.6923 11.1845 21.8964 11.2342 22.0556 11.216C23.0874 11.0982 23.965 11.3918 24.7264 12.1018C24.8956 12.2594 25.1411 12.354 25.3684 12.422C26.246 12.6825 26.8996 13.1934 27.3359 14.0096C27.4586 14.2401 27.6826 14.4508 27.9098 14.5885C28.8853 15.1824 29.504 16.0069 29.6749 17.1482C29.6948 17.2859 29.7164 17.4418 29.791 17.5496C30.6321 18.7474 30.642 20.0512 30.3235 21.4082C30.0183 22.7104 29.7761 24.0293 29.4194 25.3166C28.9218 27.1181 28.4009 28.9163 27.7838 30.6797C27.2297 32.2607 26.1896 33.5397 24.7895 34.457C24.2088 34.8369 24.2271 35.3396 24.3747 35.7891C24.4875 36.1358 24.8674 36.5257 25.2125 36.6418C25.9689 36.8939 26.7834 36.9703 27.5681 37.1444C28.1686 37.2771 28.7608 37.4497 29.3779 37.6089C29.4344 36.6335 29.4244 35.6647 29.5554 34.7158C30.088 30.8506 32.1052 27.9758 35.486 26.0614C35.8775 25.8391 36.0699 25.6234 36.0218 25.1606C35.977 24.731 36.0085 24.293 36.0135 23.8584C36.0218 23.1932 36.3801 22.7652 36.9292 22.7536C37.48 22.742 37.8632 23.1716 37.8748 23.8269C37.8814 24.1985 37.8748 24.5701 37.8748 25.0694C39.1073 24.7359 40.2968 24.4589 41.4497 24.0674C41.6985 23.9828 41.9026 23.5017 41.9556 23.1749C42.0386 22.6507 41.9988 22.1016 41.9689 21.5658C41.959 21.385 41.8644 21.1594 41.7317 21.0449C40.5771 20.0512 39.7311 18.8602 39.2284 17.4153C38.9813 16.7036 38.3874 17.1996 37.8764 17.0354C37.8764 17.8101 37.8814 18.5068 37.8764 19.2019C37.8698 19.8787 37.5231 20.2835 36.9574 20.2901C36.3934 20.2968 36.0235 19.8853 36.0152 19.2251C36.0085 18.749 36.0019 18.2729 36.0152 17.7968C36.0384 17.0752 36.055 16.3834 35.5341 15.7647C35.3334 15.5274 35.2902 15.1077 35.2786 14.7693C35.2454 13.8188 35.2388 12.8649 35.2803 11.9144C35.2969 11.5362 35.3699 11.0899 35.5905 10.8079C35.9604 10.3351 36.0434 9.81589 36.1197 9.27011C36.9126 3.65975 41.9689 -0.412823 47.6058 0.0334183C52.8064 0.446482 57.035 4.64679 57.4878 9.84243C57.5028 10.0183 57.5227 10.2372 57.6288 10.355C58.1564 10.9356 58.2808 11.6174 58.2542 12.3689C58.231 13.0308 58.231 13.6944 58.2542 14.3546C58.2808 15.0829 58.153 15.7448 57.6537 16.3154C57.5476 16.4365 57.5111 16.6522 57.5111 16.8247C57.5028 19.6597 57.5111 22.4948 57.4978 25.3298C57.4978 25.6682 57.6172 25.8275 57.9059 25.9934C61.9386 28.2992 64.0554 31.7597 64.072 36.4311C64.0919 42.0398 64.0786 47.6469 64.0769 53.2556C64.0769 55.4387 62.6155 56.8802 60.4008 56.8802C41.8594 56.8802 23.318 56.8802 4.77496 56.8802C2.59352 56.8802 1.25811 55.8982 0.597874 53.813C0.579627 53.7566 0.533178 53.7085 0.5 53.6554C0.5 51.9998 0.5 50.3442 0.5 48.6886H0.501659ZM36.0583 42.8776C38.4554 46.7295 38.6644 50.7788 37.8698 55.0057C37.898 55.0057 38.0009 55.0057 38.102 55.0057C45.5057 55.0057 52.9093 55.0074 60.3113 55.004C61.5986 55.004 62.2124 54.3836 62.214 53.098C62.219 49.8515 62.2157 46.6051 62.214 43.3586C62.214 43.201 62.1891 43.0434 62.1742 42.8776H36.0566H36.0583ZM19.4113 30.8108C20.7949 30.7776 22.2381 30.5321 23.5818 29.9017C24.6269 29.4124 25.7516 28.9412 26.3306 27.8746C26.8465 26.9224 27.2579 25.8938 27.5714 24.8554C27.9679 23.5382 28.2565 22.1846 28.517 20.8326C28.6746 20.0214 28.7044 19.1919 28.1139 18.4687C27.9447 18.2613 27.8551 17.9444 27.8335 17.6691C27.7771 16.9309 27.3972 16.4913 26.7685 16.123C26.3521 15.8791 25.9772 15.4727 25.7334 15.0513C25.4845 14.6234 25.2191 14.3729 24.7397 14.2252C24.2885 14.0859 23.8505 13.8238 23.4756 13.5301C23.0957 13.2315 22.744 13.0308 22.2414 13.1337C21.5795 13.268 20.9873 13.1171 20.4515 12.6675C19.9289 12.2279 18.7826 12.2346 18.2534 12.6791C17.716 13.1304 17.1287 13.1834 16.4585 13.1586C16.0703 13.1436 15.6573 13.346 15.284 13.5136C14.8096 13.7276 14.3534 13.9863 13.9138 14.2667C13.6019 14.4658 13.2187 14.6731 13.0677 14.9767C12.794 15.5241 12.4573 15.9339 11.8916 16.181C11.2728 16.4514 10.9444 16.9275 10.9029 17.6276C10.8863 17.9212 10.7785 18.258 10.5977 18.4836C10.1249 19.0692 10.0287 19.7311 10.1581 20.4129C10.3256 21.2987 10.6507 22.158 10.7917 23.0472C11.0356 24.5883 11.3972 26.0879 12.1686 27.4482C12.4556 27.9558 12.8421 28.4585 13.3017 28.8069C15.0684 30.1472 17.1055 30.7428 19.408 30.8075L19.4113 30.8108ZM36.5112 40.9151H41.6106C40.7032 35.9948 40.6667 31.1094 41.4497 26.1394C40.5191 26.3716 39.683 26.5806 38.8469 26.7863C35.904 27.5079 33.7491 29.2282 32.349 31.9073C31.3039 33.9079 31.2459 36.0711 31.3255 38.2509C31.3321 38.4201 31.5428 38.6126 31.7037 38.7386C32.5298 39.3889 33.3709 40.021 34.207 40.6596C34.3248 40.7492 34.4459 40.8355 34.5802 40.9317C34.6151 40.8454 34.63 40.8272 34.63 40.8089C34.6366 40.2714 34.6383 39.734 34.6482 39.1981C34.6615 38.5744 35.0132 38.1663 35.544 38.1464C36.0998 38.1265 36.4979 38.5495 36.5095 39.1932C36.5195 39.7505 36.5112 40.3079 36.5112 40.9151ZM40.7231 11.5428C40.7231 12.7123 40.7082 13.8039 40.7264 14.8971C40.7646 17.2444 41.8395 19.0028 43.8484 20.179C44.9217 20.8077 46.0979 21.0482 47.3852 20.8774C47.3338 20.7513 47.3056 20.6783 47.2757 20.607C46.5259 18.8519 47.571 17.1863 49.4787 17.1299C50.4259 17.1017 51.3748 17.125 52.3818 17.125C52.4581 16.8911 52.624 16.6041 52.6372 16.3104C52.7102 14.6416 52.75 12.9694 52.7882 11.2989C52.7899 11.1977 52.7069 11.0551 52.6207 11.0003C51.4827 10.2688 50.6532 9.2585 49.9863 8.04254C47.5793 10.9904 44.303 11.5627 40.7248 11.5428H40.7231ZM55.4856 9.55876C55.182 6.03694 51.8824 1.84658 46.6238 1.90796C42.2509 1.95939 37.9229 5.881 38.0672 9.70806C40.0197 9.60687 41.9838 9.60687 43.9214 9.37628C46.0863 9.1175 47.8679 8.10557 48.981 6.11988C49.2597 5.62222 49.7226 5.41486 50.2916 5.48619C50.839 5.5542 51.194 5.88432 51.3682 6.38862C51.7116 7.38562 52.2822 8.2134 53.0354 8.95493C53.7603 9.67157 54.5881 9.6865 55.4889 9.55876H55.4856ZM56.9238 40.9267C56.957 40.857 56.9869 40.8205 56.9885 40.7857C56.9968 40.2698 56.9968 39.7522 57.0068 39.2363C57.02 38.5744 57.3817 38.153 57.9357 38.1447C58.4848 38.1365 58.8647 38.5561 58.878 39.2147C58.8896 39.7837 58.8796 40.3511 58.8796 40.9167H62.1891C62.1891 39.1169 62.2339 37.3584 62.1742 35.6066C62.1311 34.3193 61.7611 33.0885 61.1872 31.9272C59.3541 28.2229 56.0346 26.8444 52.2408 26.2124C52.2126 26.2074 52.1761 26.2505 52.0964 26.3036C52.8761 31.1625 52.8031 36.0462 51.9223 40.9284H56.9255L56.9238 40.9267ZM42.9543 30.1522C42.9079 30.2799 42.883 30.3181 42.8797 30.3579C42.6922 33.7951 42.8382 37.2141 43.4885 40.5999C43.5167 40.7475 43.8219 40.9433 43.9994 40.945C45.8391 40.9698 47.6805 40.9532 49.5202 40.9665C49.8785 40.9698 50.0311 40.8686 50.066 40.4888C50.2667 38.3123 50.5338 36.1408 50.6914 33.961C50.7809 32.7169 50.708 31.4627 50.708 30.1074C48.0371 31.0132 45.5057 31.0231 42.9526 30.1522H42.9543ZM49.5932 22.3156C47.6954 23.0273 45.7993 22.9958 43.9181 22.3306C43.6361 24.3196 43.364 26.2306 43.0903 28.1599C45.441 29.1237 47.7701 29.1469 50.1074 28.2826C50.2501 28.2296 50.3961 27.9077 50.3729 27.7319C50.1373 25.9569 49.8686 24.1868 49.5948 22.3156H49.5932ZM15.5329 37.803C17.5268 39.4204 21.397 39.4901 23.3446 37.9656C22.9862 37.244 22.6362 36.5406 22.2696 35.8057C20.337 36.456 18.3331 36.4411 16.437 35.7974C16.1251 36.4875 15.8414 37.1179 15.5329 37.803ZM13.4045 31.1708C14.3368 33.0636 17.4937 34.6146 19.8294 34.3791C22.1717 34.1435 24.9238 32.536 25.2556 31.2189C21.324 33.1896 17.3842 33.1913 13.4045 31.1708ZM51.5357 21.9639C51.5357 22.4284 51.4627 22.8581 51.559 23.2446C51.6386 23.5681 51.8592 24.0176 52.1197 24.1056C53.2527 24.4871 54.4222 24.7558 55.6382 25.081C55.6382 24.2001 55.6382 23.4387 55.6382 22.6773C55.6382 21.9158 55.6382 21.1743 55.6382 20.4593C55.0559 20.5107 54.545 20.5456 54.0373 20.6053C53.8897 20.6219 53.6873 20.6683 53.6193 20.7729C53.1415 21.4978 52.4581 21.8594 51.5374 21.9623L51.5357 21.9639ZM38.7805 11.5362C38.394 11.5362 38.0473 11.5395 37.6989 11.5362C37.3074 11.5328 37.1382 11.7452 37.1366 12.1118C37.1333 12.9346 37.1333 13.7591 37.1366 14.5819C37.1382 14.985 37.3406 15.1841 37.7537 15.1708C38.0954 15.1608 38.4355 15.1691 38.7789 15.1691V11.5362H38.7805ZM54.759 11.5859V15.1708C55.0841 15.1708 55.3694 15.1542 55.6531 15.1741C56.1856 15.2123 56.4112 14.9784 56.3863 14.4475C56.3648 13.9532 56.3814 13.4555 56.3814 12.9595C56.3814 11.4184 56.3697 11.4084 54.7573 11.5859H54.759ZM50.4293 20.0247C50.4293 20.0247 50.4293 20.0247 50.4293 20.0264C50.7809 20.0264 51.1476 20.0877 51.476 20.0048C51.6917 19.95 51.8559 19.6846 52.0417 19.5138C51.8708 19.3446 51.7099 19.046 51.5258 19.031C50.829 18.9746 50.1207 18.9746 49.424 19.0327C49.2432 19.0476 49.0889 19.3562 48.9213 19.5287C49.0939 19.6946 49.2415 19.95 49.4422 20.0031C49.7508 20.0844 50.0975 20.0247 50.4276 20.0247H50.4293ZM53.8217 18.6246C55.2152 18.7656 55.7443 18.2978 55.5585 16.9657C55.1339 17.0918 54.618 17.1017 54.3492 17.3638C54.0589 17.6475 53.9975 18.1667 53.82 18.6263L53.8217 18.6246Z" fill="#AC3963"/>
</g>
<defs>
<clipPath id="clip0_948_1924">
<rect width="63.5819" height="56.88" fill="white" transform="translate(0.5)"/>
</clipPath>
</defs>
</svg>
