<svg width="66" height="66" viewBox="0 0 66 66" fill="none" xmlns="http://www.w3.org/2000/svg">
<g clip-path="url(#clip0_948_1938)">
<path d="M33.2338 0C34.3065 0.352008 34.9797 1.11044 35.4795 2.10014C36.0439 3.21398 36.6951 4.28191 37.2867 5.38215C37.5179 5.80898 37.8375 6.03345 38.3169 6.12528C39.7908 6.40756 41.2596 6.71536 42.7251 7.03165C43.8726 7.27823 44.6886 7.94313 45.0048 9.08928C45.3108 10.198 45.0201 11.1775 44.2024 12.0023C43.2164 12.9971 42.2491 14.0072 41.2613 14.9986C40.9077 15.354 40.7547 15.7264 40.8278 16.2502C41.0471 17.8011 41.2477 19.3553 41.399 20.9147C41.6201 23.1968 39.4253 24.763 37.3326 23.809C35.9861 23.1951 34.6703 22.5098 33.3545 21.8296C32.836 21.5609 32.3719 21.5524 31.8517 21.8228C30.6123 22.4673 29.3543 23.0727 28.1082 23.7036C27.0372 24.246 25.9814 24.2647 24.9852 23.5675C24.0094 22.8856 23.6541 21.9129 23.8054 20.7378C23.9992 19.2261 24.2015 17.7143 24.3426 16.1975C24.3749 15.8591 24.2406 15.4526 24.0587 15.1567C23.6983 14.5752 23.6796 14.0395 24.1216 13.6824C24.5568 13.3321 25.1229 13.4205 25.5802 13.9256C26.2008 14.6109 26.4473 15.4203 26.3283 16.3318C26.1379 17.8011 25.9287 19.2686 25.7383 20.7378C25.6771 21.2055 25.6414 21.6799 26.1141 21.9962C26.5544 22.2921 26.9522 22.1221 27.3636 21.9112C28.5893 21.2888 29.8337 20.7021 31.0475 20.0593C32.0914 19.5067 33.0961 19.5084 34.1382 20.0508C35.3758 20.6953 36.6186 21.333 37.8885 21.9095C38.2268 22.0626 38.7164 22.0966 39.0598 21.9724C39.5511 21.7939 39.5222 21.265 39.4644 20.8127C39.2825 19.3842 39.1142 17.9541 38.8966 16.5325C38.7334 15.4679 38.985 14.5633 39.7364 13.7946C40.7445 12.7641 41.7459 11.7251 42.7608 10.7014C43.0838 10.3749 43.3439 9.97866 43.1025 9.57903C42.9223 9.27974 42.5296 9.00936 42.1845 8.92603C40.7462 8.57913 39.291 8.30534 37.8409 8.01115C36.8702 7.81559 36.1357 7.31054 35.6546 6.43137C34.9644 5.16788 34.2827 3.89929 33.5364 2.66982C33.3426 2.34842 32.9227 1.976 32.6031 1.9743C32.2852 1.9709 31.8585 2.33822 31.663 2.65791C30.9251 3.86868 30.2485 5.11687 29.5753 6.36505C29.0772 7.28843 28.3258 7.82239 27.3024 8.02136C25.8301 8.30704 24.3596 8.61484 22.8925 8.92603C22.0527 9.10459 21.779 9.7933 22.2499 10.5007C22.6664 11.1265 22.6239 11.6622 22.1309 12.004C21.6345 12.3475 21.099 12.208 20.6552 11.6214C19.4295 10.0008 20.1877 7.65574 22.1666 7.13879C23.7187 6.73236 25.3031 6.44497 26.8774 6.13038C27.3534 6.03515 27.6764 5.81068 27.9076 5.38385C28.4992 4.28361 29.152 3.21568 29.7147 2.10184C30.2145 1.11214 30.8894 0.357109 31.9605 0.00170052H33.2338V0Z" fill="#AC3963"/>
<path d="M65.1825 19.0951C64.5551 20.4573 63.3549 21.3364 62.3689 22.3907C61.932 22.8584 61.6957 23.2954 61.8334 23.9722C62.0272 24.9245 62.1037 25.8989 62.2227 26.8665C62.3655 28.0314 62.0238 29.0211 61.0599 29.7166C60.1011 30.4087 59.0657 30.4631 58.0032 29.9258C57.0971 29.4683 56.1808 29.0296 55.2798 28.5602C54.8259 28.3239 54.4076 28.3239 53.9537 28.5602C53.034 29.0381 52.1041 29.4938 51.1742 29.953C50.1304 30.4665 49.1103 30.3951 48.1736 29.7183C47.2335 29.0381 46.8731 28.0739 47.004 26.9311C47.1247 25.8802 47.3185 24.8344 47.3848 23.7801C47.4086 23.389 47.2607 22.8958 47.0125 22.5982C46.3767 21.8347 45.644 21.1511 44.9436 20.4419C44.1326 19.6172 43.8436 18.6496 44.1717 17.5324C44.5016 16.4117 45.27 15.7587 46.4073 15.524C47.4018 15.3183 48.3895 15.087 49.3874 14.9051C49.9774 14.7979 50.3769 14.5224 50.6506 13.9783C51.079 13.128 51.5567 12.3033 52.0327 11.4785C53.2822 9.31034 55.9547 9.32225 57.2059 11.4989C57.6904 12.3424 58.18 13.1875 58.622 14.0531C58.8804 14.5581 59.2646 14.7996 59.8001 14.8966C60.7148 15.0632 61.6226 15.2724 62.5372 15.4305C63.8768 15.6618 64.7234 16.444 65.1774 17.6956V19.0951H65.1825ZM54.6456 26.3223C55.1387 26.4873 55.6351 26.6029 56.089 26.8138C57.0291 27.2491 57.9386 27.7508 58.877 28.1912C59.6675 28.5619 60.3969 28.0569 60.2983 27.2236C60.1725 26.1727 60.0331 25.1252 59.8801 24.0777C59.7236 23.0029 59.9668 22.0676 60.7539 21.2871C61.4764 20.5695 62.1921 19.8468 62.8857 19.1019C63.5538 18.3843 63.3209 17.6344 62.3621 17.4133C61.3744 17.1855 60.3816 16.9763 59.3836 16.7926C58.2888 16.592 57.4813 16.0359 56.9594 15.0411C56.5072 14.1789 56.0227 13.3355 55.5399 12.4903C55.0129 11.5686 54.2206 11.5635 53.6987 12.4767C53.1853 13.378 52.6923 14.2895 52.1823 15.1924C51.7335 15.9883 51.0807 16.5137 50.1678 16.7025C49.0712 16.9287 47.9747 17.1565 46.885 17.4082C45.8922 17.6378 45.6746 18.3911 46.3801 19.1342C47.0805 19.8723 47.7962 20.595 48.5102 21.3194C49.214 22.0319 49.4928 22.8856 49.3738 23.8702C49.2463 24.9211 49.1256 25.972 48.959 27.0162C48.8859 27.4787 48.9301 27.8613 49.3194 28.147C49.7173 28.4395 50.1134 28.3256 50.5112 28.1232C51.4156 27.6624 52.3149 27.1896 53.238 26.7662C53.6732 26.5672 54.1543 26.472 54.6456 26.3206V26.3223Z" fill="#AC3963"/>
<path d="M30.6285 39.5126C30.2409 38.2661 30.7577 37.319 31.2932 36.365C31.8934 35.2936 32.4187 34.1798 33.0494 33.1272C34.083 31.3994 32.8386 29.5017 30.9872 29.5935C30.2069 29.6326 29.7632 29.8214 29.4487 30.539C29.0934 31.3518 28.6276 32.1154 28.2009 32.8959C27.8167 33.5965 27.3084 33.8023 26.7576 33.4962C26.2441 33.2105 26.1353 32.668 26.4805 32.015C27.1231 30.7992 27.7827 29.5901 28.4236 28.3725C28.6888 27.8675 29.0832 27.6175 29.6544 27.6515C30.5401 27.7042 31.4581 27.6243 32.3082 27.8301C34.8242 28.4388 36.0958 31.2702 34.9449 33.6288C34.2479 35.0556 33.4557 36.4347 32.7094 37.8359C32.1484 38.8902 32.5139 39.5092 33.7039 39.5109C37.1397 39.5143 40.5771 39.5075 44.0129 39.5177C44.4549 39.5177 44.9122 39.5415 45.3355 39.6538C46.4932 39.9582 47.311 41.0006 47.3722 42.2097C47.4045 42.844 47.3926 43.4816 47.3926 44.1176C47.3926 45.2604 47.3382 45.4406 46.7737 46.3385C47.6867 48.3655 47.668 50.3432 46.7924 52.4417C47.7717 53.7783 47.4113 55.4261 47.3076 57.0025C47.2464 57.9293 46.5714 58.6112 45.7027 58.9904C45.3593 59.14 45.3253 59.3016 45.3491 59.657C45.4137 60.6688 45.4987 61.6993 45.3831 62.6992C45.2063 64.2348 43.9976 65.1769 42.4166 65.1769C36.6467 65.1786 30.8767 65.1871 25.1068 65.1735C22.5738 65.1684 20.5609 64.092 19.1159 62.0275C18.7011 61.434 18.2472 61.162 17.5349 61.2198C17.0742 61.2572 16.5931 61.2606 16.1426 61.1705C14.8199 60.9069 13.8798 59.8492 13.8679 58.4802C13.8322 54.4075 13.8288 50.333 13.8679 46.2603C13.8832 44.7009 14.9899 43.6398 16.5608 43.4986C17.1099 43.4493 17.6709 43.468 18.2047 43.3541C19.8537 43.0021 21.0743 42.0481 21.8768 40.567C22.5942 39.2456 23.2997 37.9192 24.012 36.5945C24.1021 36.4262 24.1871 36.2544 24.2959 36.098C24.6172 35.6371 25.1153 35.5113 25.5709 35.7647C26.0231 36.0164 26.2254 36.5316 25.967 37.0146C25.0201 38.7882 24.1429 40.6112 23.0481 42.2896C21.683 44.3829 19.597 45.3471 17.1116 45.427C16.0236 45.4628 15.7889 45.6872 15.7889 46.7926C15.7889 50.5269 15.7889 54.2612 15.7889 57.9956C15.7889 59.0125 16.0899 59.3084 17.1184 59.3135C17.4363 59.3152 17.7542 59.3169 18.0738 59.3152C19.1108 59.3135 19.9234 59.7556 20.4793 60.6161C21.6813 62.4748 23.4 63.2808 25.5811 63.274C31.0756 63.257 36.5701 63.2689 42.0647 63.2689C43.2054 63.2689 43.4893 62.9849 43.4927 61.8456C43.4927 61.315 43.5114 60.7844 43.4825 60.2556C43.4468 59.589 43.1476 59.2965 42.4761 59.2829C41.3948 59.2642 40.3119 59.2761 39.2307 59.2744C39.0403 59.2744 38.8482 59.2829 38.6578 59.2693C37.9676 59.2234 37.563 58.8476 37.5732 58.2711C37.5834 57.6963 38.0016 57.3137 38.6884 57.3086C40.4496 57.2967 42.2092 57.3035 43.9704 57.3035C44.1608 57.3035 44.3529 57.3103 44.5433 57.2984C45.123 57.261 45.4358 56.9311 45.4579 56.3648C45.4834 55.7288 45.4715 55.0928 45.4647 54.4551C45.4562 53.6695 45.1264 53.3362 44.3393 53.3328C42.5577 53.326 40.776 53.3311 38.9927 53.3311C38.8448 53.3311 38.6952 53.3379 38.5473 53.3277C37.9642 53.2834 37.5749 52.8974 37.5715 52.3618C37.5681 51.8261 37.9489 51.4214 38.5439 51.4112C39.6897 51.3891 40.8355 51.401 41.9797 51.3993C42.743 51.3993 43.508 51.4095 44.2713 51.3959C45.1417 51.3823 45.4579 51.0575 45.4647 50.1987C45.4681 49.6681 45.4681 49.1376 45.4647 48.607C45.4596 47.7108 45.1468 47.3911 44.2322 47.386C42.5356 47.3775 40.8372 47.3826 39.1406 47.3826C38.9706 47.3826 38.8006 47.3877 38.6323 47.3792C37.9812 47.3503 37.5817 46.9966 37.5732 46.4423C37.563 45.8607 37.9795 45.4577 38.6527 45.4543C40.5193 45.444 42.386 45.4526 44.2526 45.4492C45.1553 45.4492 45.4613 45.1346 45.4664 44.2231C45.4698 43.6925 45.4698 43.1619 45.4664 42.6314C45.4596 41.8015 45.1468 41.4818 44.3138 41.4801C40.4105 41.4767 36.5072 41.4784 32.604 41.4784C31.3306 41.4784 30.059 41.4886 28.7857 41.4733C28.1278 41.4648 27.6722 41.0414 27.6739 40.4904C27.6739 39.965 28.0972 39.5619 28.7296 39.5177C29.0883 39.4922 29.4504 39.5092 29.8108 39.5075C30.0403 39.5075 30.2698 39.5075 30.6353 39.5075L30.6285 39.5126Z" fill="#AC3963"/>
<path d="M21.1383 18.2163C21.1553 19.1635 20.8442 19.8182 20.3104 20.3743C19.6066 21.1089 18.8977 21.8401 18.1786 22.5594C17.8216 22.9165 17.6856 23.294 17.7757 23.8161C17.9508 24.8364 18.063 25.8703 18.1837 26.8992C18.3197 28.064 17.961 29.0503 16.9919 29.7356C16.0501 30.4022 15.0301 30.4583 13.9897 29.938C13.0819 29.4839 12.1638 29.0469 11.2662 28.5742C10.7902 28.3242 10.3601 28.3225 9.88411 28.5742C9.00689 29.0384 8.10757 29.4652 7.22185 29.9125C6.11513 30.4702 5.04241 30.4175 4.05979 29.6591C3.09587 28.916 2.81197 27.8974 2.99047 26.7138C3.14858 25.668 3.31178 24.6205 3.38828 23.5661C3.41038 23.2566 3.21998 22.8638 3.00407 22.6189C2.34446 21.8724 1.63045 21.1769 0.928333 20.4678C0.119117 19.6498 -0.202189 18.6924 0.119117 17.5667C0.447223 16.4188 1.22074 15.7505 2.38696 15.5159C3.40188 15.3118 4.4134 15.0856 5.42832 14.885C5.93833 14.7846 6.30384 14.5483 6.55204 14.0653C7.00595 13.1811 7.50236 12.3172 8.00047 11.4584C9.24149 9.32257 11.9037 9.32087 13.1397 11.455C13.6276 12.2968 14.1155 13.1419 14.5541 14.0092C14.8329 14.5602 15.2494 14.8016 15.8359 14.9054C16.8763 15.089 17.9134 15.2999 18.9385 15.5499C20.2934 15.8815 21.1349 16.9953 21.1332 18.2146L21.1383 18.2163ZM4.87411 27.3753C4.87411 28.1065 5.58812 28.5317 6.32254 28.1864C7.18445 27.7817 8.04637 27.3736 8.87599 26.9094C10.0371 26.2581 11.1557 26.2819 12.3101 26.9213C13.1414 27.3821 13.9982 27.8038 14.8601 28.2035C15.6166 28.5538 16.351 28.0538 16.2626 27.258C16.1453 26.207 16.0093 25.1578 15.8461 24.112C15.6744 23.0084 15.926 22.0629 16.7301 21.2653C17.4527 20.5494 18.1684 19.825 18.8603 19.0802C19.5012 18.3897 19.27 17.6313 18.3554 17.4187C17.3676 17.1892 16.3748 16.9766 15.3769 16.7964C14.26 16.594 13.4321 16.0396 12.9034 15.0176C12.4665 14.1725 11.987 13.3477 11.5161 12.5212C10.9687 11.5588 10.1867 11.5486 9.6444 12.4991C9.13099 13.4004 8.63798 14.3119 8.12627 15.2149C7.68596 15.9886 7.05015 16.5056 6.16103 16.6926C5.04411 16.9273 3.92719 17.1569 2.81707 17.4153C1.86675 17.6347 1.64065 18.3948 2.31216 19.1091C2.99557 19.8352 3.69259 20.5477 4.3998 21.2466C5.22262 22.0595 5.47422 23.0237 5.29572 24.1511C5.12571 25.2156 5.01181 26.2904 4.87071 27.377L4.87411 27.3753Z" fill="#AC3963"/>
</g>
<defs>
<clipPath id="clip0_948_1938">
<rect width="65.1827" height="65.1827" fill="white"/>
</clipPath>
</defs>
</svg>
