<svg width="65" height="61" viewBox="0 0 65 61" fill="none" xmlns="http://www.w3.org/2000/svg">
<g clip-path="url(#clip0_948_1927)">
<path d="M24.8414 38.6252C26.4287 40.6765 28.5125 41.9089 31.2122 42.3936L32.477 42.6207L33.7951 42.3898C39.0255 41.4726 42.4757 37.1416 42.1836 31.8577C41.9322 27.3137 37.8649 23.2239 33.3011 22.9279C33.0801 22.9139 32.8592 22.9062 32.6408 22.9062C27.6668 22.9062 23.4395 26.5687 22.8694 31.5005C22.5633 34.1425 23.2274 36.5395 24.8427 38.6265L24.8414 38.6252ZM26.8579 26.9387C28.3855 25.4155 30.3792 24.5799 32.4782 24.5799C32.4986 24.5799 32.5176 24.5799 32.5367 24.5799C36.9544 24.6131 40.5468 28.2399 40.5455 32.664C40.5455 34.8097 39.6909 36.8418 38.143 38.3854C36.6154 39.9086 34.6217 40.7454 32.5227 40.7454C32.5036 40.7454 32.4833 40.7454 32.4643 40.7454C28.0465 40.7123 24.4541 37.0855 24.4554 32.6614C24.4554 30.5157 25.31 28.4835 26.8579 26.94V26.9387Z" fill="#AC3963"/>
<path d="M0.500758 58.3041C0.500758 58.5286 0.502028 58.7531 0.500758 58.9789C0.499488 59.5096 0.570599 59.8311 0.72806 59.9892C0.88806 60.15 1.21695 60.2252 1.76425 60.2252H11.4316C13.7846 60.2252 16.149 60.2252 18.5211 60.2252C33.2652 60.2252 48.3496 60.2265 63.2195 60.238H63.222C63.89 60.238 64.2468 60.0811 64.4982 59.6652V55.7055C64.4563 55.6353 64.4081 55.5409 64.3928 55.4185C64.1071 53.2013 63.0341 51.0429 61.3693 49.3385C59.6931 47.6227 57.4849 46.4389 55.1496 46.0039C54.949 45.9669 54.7496 45.9325 54.549 45.898L53.1674 45.6582L52.0487 45.8215C49.1649 46.2425 46.8309 47.3446 44.916 49.1906L44.563 49.5312L44.2595 49.1446C41.5827 45.736 38.1668 43.8148 33.815 43.2714L32.5211 43.1094L31.1877 43.2752C26.9058 43.8059 23.429 45.7296 20.8538 48.9916L20.6087 49.3015L20.2735 49.0949C19.8836 48.8551 19.5052 48.6076 19.1395 48.369C18.3255 47.8371 17.556 47.3344 16.7357 46.9568C15.909 46.5767 15.01 46.319 14.1414 46.0702C13.7706 45.9644 13.3858 45.8534 13.0227 45.7373L11.7973 45.3457L10.8258 45.7768C10.6036 45.8751 10.3852 45.9363 10.1401 45.9656C5.97758 46.4785 1.99409 49.9509 0.874091 54.0433C0.493139 55.4338 0.496949 56.8281 0.500758 58.3041ZM46.0474 50.4331C48.9604 47.7197 52.2633 46.8777 55.8671 47.9289C59.4595 48.9775 61.7973 51.4498 62.6277 55.0804C62.7814 55.7527 62.822 56.4505 62.8601 57.1241C62.8779 57.4289 62.8957 57.7453 62.9249 58.0553L62.9693 58.5426H47.3858L47.3389 58.1497C47.3071 57.8895 47.2842 57.6254 47.2614 57.3703C47.2106 56.7962 47.1636 56.2528 47.0303 55.7323C46.6989 54.426 46.2633 53.1146 45.8417 51.8478L45.8011 51.7253C45.6931 51.4026 45.5319 50.914 46.0474 50.4344V50.4331ZM22.3865 49.7838C24.5541 47.1342 27.6068 45.4592 30.9833 45.0663C34.7293 44.63 38.3369 45.7602 41.1395 48.2478C43.9382 50.7316 45.5623 54.3201 45.5928 58.0923L45.5966 58.5426H19.4989L19.4773 58.1191C19.3287 55.2628 20.389 52.2241 22.3865 49.7825V49.7838ZM3.3452 52.455C4.84742 49.7863 7.50774 48.0208 10.6442 47.6113C13.782 47.2018 16.8055 48.2274 18.9389 50.4242C19.1471 50.6385 19.5344 51.0378 19.2144 51.6858C18.2569 53.6325 17.7706 55.7336 17.7274 58.1102L17.7198 58.549H2.21377L2.18203 58.1369C2.01695 55.9976 2.39663 54.1389 3.3452 52.455Z" fill="#AC3963"/>
<path d="M5.92843 41.8164C7.05478 43.4595 8.67129 44.5081 10.7322 44.9329L11.71 45.1345L13.0726 44.8743C16.8122 44.1599 19.2999 40.8737 18.9887 37.0581C18.7145 33.6954 15.7976 30.7856 12.4846 30.5713C12.3119 30.5598 12.1405 30.5547 11.9703 30.5547C8.47827 30.5547 5.52081 32.8713 4.83129 36.2213C4.41224 38.2598 4.78177 40.1415 5.92843 41.8164ZM11.7875 32.2233H11.8078H11.8281C15.0192 32.3432 17.2783 34.5961 17.3202 37.7024C17.3621 40.8023 15.0116 43.1967 11.8522 43.272C11.8129 43.272 11.7735 43.2733 11.7354 43.2733C10.3614 43.2733 8.99637 42.6954 7.97542 41.6761C6.91891 40.6224 6.32716 39.1962 6.35256 37.7623C6.40462 34.6688 8.64081 32.3904 11.7887 32.2233H11.7875Z" fill="#AC3963"/>
<path d="M53.2925 45.1831L54.2398 44.9701C56.1675 44.5376 57.7687 43.5477 58.8697 42.1087C59.9694 40.6723 60.4659 38.9208 60.3046 37.0468C60.0024 33.5055 56.8913 30.5969 53.37 30.5625C53.3446 30.5625 53.3179 30.5625 53.2925 30.5625C49.4957 30.5625 46.377 33.3167 46.0202 36.9996C45.6494 40.8279 48.1941 44.1677 52.0697 44.9407L53.2913 45.1844L53.2925 45.1831ZM47.6811 37.6872C47.7344 34.5452 50.1052 32.2043 53.2062 32.249C56.297 32.2911 58.5408 34.5567 58.6652 37.7612V37.7816V37.802C58.5027 40.967 56.1954 43.2556 53.1757 43.2556C53.1668 43.2556 53.1567 43.2556 53.1478 43.2556C51.6125 43.2479 50.2119 42.6739 49.2037 41.6393C48.1967 40.606 47.657 39.2027 47.6824 37.6885L47.6811 37.6872Z" fill="#AC3963"/>
<path d="M41.7674 8.10315C42.2017 7.6758 42.217 7.3926 42.1065 7.09791C41.9681 6.72796 41.7141 6.55702 41.2011 6.48813C40.509 6.39501 39.8094 6.29295 39.1313 6.19345C38.3338 6.07609 37.5097 5.95617 36.6995 5.85157C36.0303 5.76482 35.6062 5.45228 35.3255 4.8374C34.8874 3.87426 34.4087 2.90601 33.9465 1.96966C33.7255 1.52189 33.5033 1.07413 33.2862 0.62381C33.0805 0.200283 32.8354 0.0191353 32.4417 0C32.1801 0.00765411 31.8792 0.0956764 31.6138 0.645497C31.3776 1.13536 31.1389 1.62395 30.8989 2.11126C30.457 3.00934 30.0011 3.93932 29.5808 4.86164C29.3128 5.44973 28.904 5.75079 28.2538 5.84009C27.6011 5.92938 26.937 6.02761 26.2944 6.12201C25.4614 6.24448 24.5992 6.37205 23.7471 6.48303C23.1211 6.56468 22.9255 6.77006 22.824 7.05454C22.7224 7.33902 22.6995 7.6707 23.2151 8.16694C23.7433 8.67466 24.2728 9.19641 24.7859 9.70159C25.37 10.2769 25.9732 10.8714 26.5751 11.4454C26.9611 11.8141 27.0932 12.2109 26.9992 12.7339C26.8786 13.4075 26.7655 14.0963 26.6551 14.761C26.5116 15.6348 26.3617 16.538 26.1954 17.4259C26.0709 18.0841 26.2716 18.3354 26.5065 18.5076C26.7592 18.6939 27.0462 18.7526 27.6341 18.4362C28.2119 18.1249 28.8011 17.8162 29.37 17.5164C30.1573 17.1031 30.9713 16.6745 31.7624 16.2395C31.9986 16.1094 32.2246 16.0443 32.4519 16.0443C32.6792 16.0443 32.9205 16.1132 33.1732 16.2497C34.0963 16.7523 35.0436 17.2511 35.9592 17.7333C36.4455 17.9897 36.9306 18.2461 37.4157 18.5038C37.9351 18.7806 38.2297 18.6441 38.429 18.4962C38.6309 18.3444 38.8506 18.0956 38.749 17.5126C38.6665 17.0406 38.584 16.5686 38.5014 16.0966C38.3147 15.0263 38.123 13.919 37.9236 12.8321C37.8144 12.2415 37.9516 11.8039 38.3668 11.4136C39.3421 10.4963 40.3135 9.53702 41.2532 8.61087L41.77 8.10188L41.7674 8.10315ZM38.6297 8.81243C38.4748 8.96934 38.3401 9.10457 38.2043 9.23724C38.0582 9.38011 37.9148 9.52554 37.7725 9.67097C37.4246 10.0243 37.064 10.3905 36.6665 10.7158C36.1319 11.1533 35.9808 11.6508 36.1497 12.4328C36.2881 13.0783 36.3947 13.7302 36.5078 14.4203C36.5586 14.7329 36.6119 15.0556 36.669 15.3911L36.8227 16.2828L36.0252 15.8631C35.7103 15.6973 35.4068 15.5404 35.1122 15.3886C34.4506 15.0467 33.8259 14.724 33.2151 14.3731C32.6817 14.067 32.2259 14.067 31.6913 14.3731C31.0767 14.7265 30.4519 15.0505 29.7916 15.3937C29.5008 15.5442 29.2036 15.6986 28.8976 15.8606L28.1078 16.2777L28.2525 15.3924C28.3097 15.0416 28.363 14.6984 28.4151 14.3617C28.537 13.5695 28.6525 12.8206 28.81 12.0705C28.9052 11.6164 28.8011 11.2962 28.443 10.9301C27.9097 10.3854 27.4017 9.84191 26.8633 9.26658C26.6411 9.0293 26.4176 8.79075 26.1916 8.54964L25.6062 7.92711L26.4494 7.80081C26.7135 7.76127 26.9827 7.71662 27.2544 7.67197C27.8995 7.56609 28.5662 7.45638 29.243 7.39387C30.0151 7.32243 30.4392 7.02647 30.7071 6.37332C30.9738 5.72527 31.2849 5.10912 31.6138 4.45724C31.7586 4.17149 31.9059 3.87936 32.0532 3.57702L32.4506 2.76058L32.8506 3.57575C33.003 3.88574 33.1541 4.1868 33.304 4.48403C33.6506 5.17418 33.9782 5.82478 34.2741 6.50472C34.509 7.04433 34.8532 7.29437 35.4627 7.36836C36.1611 7.45255 36.8595 7.55461 37.5986 7.66176C37.9275 7.70896 38.2665 7.75872 38.6195 7.80847L39.5033 7.93349L38.6309 8.81116L38.6297 8.81243Z" fill="#AC3963"/>
<path d="M17.6116 17.6303C17.7475 17.4862 17.8567 17.282 17.9722 17.0665C18.0053 17.0039 18.0396 16.9402 18.0751 16.8764C17.9646 16.3929 17.6662 16.1276 17.1443 16.0485C16.8396 16.0013 16.5348 15.9566 16.2288 15.912C15.4821 15.801 14.7088 15.6874 13.9507 15.5497C13.623 15.4897 13.2675 15.2218 13.1024 14.9105C12.6643 14.0814 12.2503 13.2254 11.8503 12.3987L11.7132 12.1168C11.491 11.6576 11.2446 11.4688 10.8649 11.4688H10.8599C10.5424 11.47 10.2757 11.5836 10.0078 12.1321C9.87447 12.4051 9.7386 12.6755 9.60146 12.9473C9.30812 13.5303 9.00463 14.1337 8.74178 14.7358C8.50558 15.2754 8.13987 15.5484 7.5532 15.6237C7.08971 15.6836 6.61606 15.7551 6.15892 15.8252C5.67384 15.8992 5.17352 15.9757 4.67574 16.0383C4.07765 16.1135 3.88209 16.3317 3.77416 16.6353C3.66368 16.9427 3.68527 17.2412 4.15003 17.6915C4.37479 17.9084 4.59574 18.1291 4.81797 18.3485C5.26241 18.7886 5.72209 19.244 6.19066 19.6663C6.64019 20.072 6.79511 20.5414 6.67701 21.1435C6.58051 21.6372 6.4967 22.145 6.4167 22.6361C6.33924 23.1081 6.25924 23.5967 6.16654 24.0776C6.08273 24.5152 6.18051 24.8035 6.49416 25.042C6.68082 25.1836 6.95892 25.3138 7.44527 25.0548C7.73606 24.9004 8.02812 24.7486 8.32019 24.5968C8.9132 24.2894 9.52654 23.9705 10.1094 23.6324C10.6313 23.3301 11.1049 23.3352 11.6446 23.6464C12.1437 23.9347 12.6669 24.209 13.1735 24.4731C13.491 24.6389 13.8199 24.8111 14.1411 24.9859C14.7024 25.2908 14.9957 25.2206 15.2624 25.0216C15.5697 24.792 15.6472 24.4897 15.5507 23.9029C15.4961 23.5724 15.4389 23.2408 15.3805 22.9116C15.2675 22.2712 15.1519 21.6092 15.0656 20.9484C15.0161 20.5708 15.1634 20.1026 15.4148 19.836C15.7805 19.4469 16.1665 19.0706 16.5399 18.707C16.8967 18.3587 17.2662 17.999 17.6103 17.6341L17.6116 17.6303ZM14.7291 18.0015C14.5373 18.2286 14.338 18.4327 14.1449 18.6304C13.7602 19.0246 13.4288 19.364 13.3056 19.7314C13.1837 20.0975 13.2421 20.5746 13.3119 21.1257C13.3475 21.4089 13.3843 21.7023 13.4008 22.0136L13.4567 23.08L12.6618 22.3708C11.4249 21.2673 10.2783 21.2635 8.94495 22.3554L7.65987 23.4092L8.24908 21.8516C8.86114 20.234 8.5005 19.1024 7.08209 18.1814L5.6713 17.2655L7.34749 17.3599C9.02114 17.4543 9.98114 16.7577 10.4637 15.0981L10.9297 13.4933L11.3221 15.1185C11.7119 16.7335 12.6465 17.3969 14.3557 17.2667L15.4148 17.1864L14.7278 18.0003L14.7291 18.0015Z" fill="#AC3963"/>
<path d="M61.0589 17.0715C61.0932 17.009 61.1275 16.9465 61.163 16.8827C61.0564 16.3941 60.7605 16.1262 60.2437 16.0471C59.9262 15.9986 59.6088 15.9527 59.2913 15.9068C58.5764 15.8034 57.8361 15.6963 57.1097 15.5585C56.7491 15.4896 56.3554 15.1975 56.1738 14.8633C55.7408 14.066 55.3434 13.238 54.9573 12.4382L54.8062 12.1231C54.5434 11.5784 54.2767 11.4661 53.9554 11.4648H53.9516C53.5732 11.4648 53.3268 11.6536 53.1008 12.1167C52.9878 12.3476 52.8761 12.5811 52.7643 12.8132C52.4405 13.4881 52.1053 14.1846 51.7421 14.8582C51.5618 15.1924 51.1656 15.4858 50.7986 15.5585C49.9249 15.7295 48.9637 15.88 47.7764 16.0331C47.1707 16.1109 46.9738 16.3252 46.8634 16.6237C46.7491 16.9337 46.7681 17.2322 47.2291 17.68C47.4526 17.8968 47.6748 18.1163 47.8957 18.3357C48.3554 18.7898 48.8316 19.2606 49.3154 19.6968C49.8589 20.1867 49.8411 20.7174 49.7649 21.1243C49.6849 21.5491 49.6138 21.9841 49.544 22.4064C49.4576 22.9294 49.3687 23.4703 49.2634 24.0023C49.1668 24.4832 49.2595 24.7919 49.5732 25.033C49.7878 25.1976 50.0646 25.3086 50.6335 25.0011L50.758 24.9335C51.6151 24.4705 52.5015 23.9921 53.3967 23.5583C53.718 23.4027 54.1865 23.4027 54.5103 23.5583C55.4475 24.0099 56.3986 24.5291 57.163 24.9463C57.7078 25.2435 58.0164 25.2639 58.3402 25.0228C58.6589 24.7868 58.7338 24.4794 58.6284 23.8492C58.5853 23.589 58.5434 23.3274 58.5014 23.0659C58.3922 22.3834 58.2792 21.678 58.1294 20.9993C57.9935 20.3844 58.2602 20.0285 58.5395 19.7619L58.5662 19.7364C59.2761 19.059 60.0088 18.3574 60.6894 17.6366C60.8278 17.4899 60.9395 17.2858 61.0576 17.0702L61.0589 17.0715ZM57.7484 18.1673C56.3135 19.1419 55.9453 20.2632 56.5548 21.8043L57.1681 23.3542L55.8665 22.3196C54.5395 21.2659 53.3561 21.2761 52.0253 22.3528L50.7516 23.3836L51.3307 21.8464C51.9453 20.2148 51.5897 19.1228 50.1776 18.3038L49.6849 18.0193L50.2945 17.3827L50.4418 17.3598C50.5497 17.3419 50.6576 17.3228 50.7656 17.3024C51.0208 17.2539 51.2849 17.2054 51.5618 17.1901C52.3072 17.1506 52.7262 16.8635 52.9662 16.2308C53.0665 15.9642 53.1922 15.7205 53.3497 15.4131C53.4284 15.2587 53.5173 15.0865 53.6151 14.8862L54.1738 13.7432L54.4468 14.987C54.8278 16.7181 55.7624 17.4465 57.4741 17.3521L59.0805 17.2628L57.7472 18.1673H57.7484Z" fill="#AC3963"/>
<path d="M41.3187 54.2144C41.3149 54.1991 41.3111 54.1825 41.3072 54.1647C41.2844 54.0664 41.2526 53.9312 41.2006 53.8279C40.4412 52.306 39.3403 51.038 37.9295 50.0595C37.7288 49.9205 37.5219 49.8516 37.3276 49.8516C37.0901 49.8516 36.873 49.9549 36.713 50.159C36.2685 50.7229 36.7168 51.2114 36.9314 51.3964C37.0444 51.4934 37.1688 51.5852 37.2996 51.6822C37.5599 51.8748 37.8304 52.0751 38.0514 52.3455C38.5009 52.8966 38.9187 53.4809 39.3212 54.046C39.4774 54.2654 39.6336 54.4849 39.7923 54.7017C40.1745 55.2273 40.5276 55.1724 40.7599 55.0857C41.085 54.9645 41.3047 54.7681 41.3187 54.2144Z" fill="#AC3963"/>
</g>
<defs>
<clipPath id="clip0_948_1927">
<rect width="64" height="60.2353" fill="white" transform="translate(0.5)"/>
</clipPath>
</defs>
</svg>
