<svg width="63" height="63" viewBox="0 0 63 63" fill="none" xmlns="http://www.w3.org/2000/svg">
<g clip-path="url(#clip0_948_1943)">
<path d="M10.5444 0H0V10.4206H2.68589V2.63571H10.5444V0Z" fill="#AC3963"/>
<path d="M62.9991 10.339V0H52.4531V2.67962H60.3587V10.339H62.9991Z" fill="#AC3963"/>
<path d="M0 52.582V63.001H10.4927V60.3292H2.63258V52.582H0Z" fill="#AC3963"/>
<path d="M48.6382 20.1796C43.4671 16.89 37.7285 15.159 31.5805 15.0352C31.0819 15.0838 30.5818 15.1277 30.0832 15.1716C28.9997 15.2656 27.8786 15.3644 26.792 15.5181C21.737 16.2362 17.0598 18.1883 12.4893 21.4841C8.64779 24.2562 5.47898 27.5599 3.07218 31.301C2.95459 31.4829 2.95459 31.5127 3.07532 31.6946C6.56713 37.0193 11.2161 41.2339 16.8952 44.2224C22.822 47.3411 29.2067 48.4684 35.8673 47.5716C41.1356 46.8629 46.1373 44.7853 50.733 41.3954C54.4929 38.6249 57.5833 35.3604 59.9196 31.6961C60.0356 31.5143 60.0356 31.4798 59.9164 31.2947C57.0675 26.8669 53.2731 23.1273 48.6382 20.178V20.1796ZM56.8386 31.5001L56.5924 31.8278C54.54 34.567 52.2069 36.9127 49.4582 38.9996C45.4976 42.0054 41.1623 43.9339 36.5713 44.7352C34.9062 45.0252 33.2379 45.171 31.5805 45.171C30.1898 45.171 28.8069 45.0691 27.438 44.8637C19.3631 43.6564 12.5818 39.5202 6.70511 32.2183C6.31783 31.7385 6.31626 31.2681 6.70041 30.782C10.8868 25.4745 15.6988 21.8353 21.4109 19.6559C25.0265 18.2761 28.915 17.6771 32.9666 17.8731C39.9314 18.2118 46.0778 20.835 51.7584 25.89C53.5584 27.4925 55.1405 29.2188 56.5955 31.1693L56.8401 31.4986L56.8386 31.5001Z" fill="#AC3963"/>
<path d="M60.3475 52.6562V60.3549H52.5156V62.9686H62.9675V52.6562H60.3475Z" fill="#AC3963"/>
<path d="M38.0822 23.0164C36.1882 21.5472 33.9021 20.7695 31.5298 20.7695C31.0735 20.7695 30.6157 20.7978 30.1547 20.8558C27.301 21.2148 24.7657 22.6573 23.0127 24.9152C21.2598 27.173 20.493 29.989 20.8521 32.8427C21.2111 35.6964 22.6537 38.2317 24.9115 39.9847C27.1693 41.7376 29.9854 42.5044 32.839 42.1437C35.6927 41.7847 38.228 40.3422 39.981 38.0843C41.734 35.8265 42.5007 33.0105 42.1416 30.1568C41.7826 27.3032 40.3401 24.7678 38.0822 23.0148V23.0164ZM32.5317 39.4971C32.1868 39.541 31.8434 39.5629 31.5016 39.5629C29.7329 39.5629 28.016 38.9781 26.5798 37.8711C24.8676 36.5509 23.7747 34.6552 23.5019 32.5322C23.2291 30.4077 23.8061 28.2941 25.1279 26.5803C26.4481 24.8681 28.3437 23.7753 30.4652 23.5025C32.5913 23.2296 34.7049 23.8066 36.4171 25.1284C38.1293 26.4486 39.2221 28.3443 39.4949 30.4673C40.061 34.881 36.9376 38.931 32.5317 39.4955V39.4971Z" fill="#AC3963"/>
</g>
<defs>
<clipPath id="clip0_948_1943">
<rect width="63" height="63" fill="white"/>
</clipPath>
</defs>
</svg>
